<svg width="23" height="20" viewBox="0 0 23 20" fill="none" xmlns="http://www.w3.org/2000/svg">
<path d="M5.012 0.607C6.486 0.607 7.663 1.168 8.543 2.29C9.423 3.434 9.863 4.809 9.863 6.415C9.863 9.099 9.258 11.497 8.048 13.609C6.816 15.743 5.045 17.613 2.735 19.219L1.415 17.272C2.647 16.326 3.648 15.325 4.418 14.269C5.166 13.213 5.54 12.289 5.54 11.497C5.54 10.749 5.287 10.177 4.781 9.781C4.275 9.385 3.692 9.022 3.032 8.692C2.35 8.362 1.756 7.933 1.25 7.405C0.743998 6.877 0.490998 6.107 0.490998 5.095C0.490998 3.819 0.919998 2.752 1.778 1.894C2.636 1.036 3.714 0.607 5.012 0.607ZM17.816 0.607C19.268 0.607 20.434 1.168 21.314 2.29C22.194 3.434 22.634 4.809 22.634 6.415C22.634 9.099 22.029 11.497 20.819 13.609C19.609 15.743 17.849 17.613 15.539 19.219L14.219 17.272C15.451 16.326 16.452 15.325 17.222 14.269C17.992 13.213 18.377 12.289 18.377 11.497C18.377 10.749 18.124 10.177 17.618 9.781C17.09 9.385 16.496 9.022 15.836 8.692C15.176 8.362 14.593 7.933 14.087 7.405C13.559 6.877 13.295 6.107 13.295 5.095C13.295 3.819 13.724 2.752 14.582 1.894C15.44 1.036 16.518 0.607 17.816 0.607Z" fill="#EE5F36"/>
</svg>
