<svg width="23" height="20" viewBox="0 0 23 20" fill="none" xmlns="http://www.w3.org/2000/svg">
<path d="M17.988 19.393C16.514 19.393 15.337 18.832 14.457 17.71C13.577 16.566 13.137 15.191 13.137 13.585C13.137 10.901 13.742 8.503 14.952 6.391C16.184 4.257 17.955 2.387 20.265 0.780996L21.585 2.728C20.353 3.674 19.352 4.675 18.582 5.731C17.834 6.787 17.46 7.711 17.46 8.503C17.46 9.251 17.713 9.823 18.219 10.219C18.725 10.615 19.308 10.978 19.968 11.308C20.65 11.638 21.244 12.067 21.75 12.595C22.256 13.123 22.509 13.893 22.509 14.905C22.509 16.181 22.08 17.248 21.222 18.106C20.364 18.964 19.286 19.393 17.988 19.393ZM5.184 19.393C3.732 19.393 2.566 18.832 1.686 17.71C0.806 16.566 0.366 15.191 0.366 13.585C0.366 10.901 0.971 8.503 2.181 6.391C3.391 4.257 5.151 2.387 7.461 0.780996L8.781 2.728C7.549 3.674 6.548 4.675 5.778 5.731C5.008 6.787 4.623 7.711 4.623 8.503C4.623 9.251 4.876 9.823 5.382 10.219C5.91 10.615 6.504 10.978 7.164 11.308C7.824 11.638 8.407 12.067 8.913 12.595C9.441 13.123 9.705 13.893 9.705 14.905C9.705 16.181 9.276 17.248 8.418 18.106C7.56 18.964 6.482 19.393 5.184 19.393Z" fill="#EE5F36"/>
</svg>
